<mxfile host="app.diagrams.net" agent="Mozilla/5.0 (Macintosh; Intel Mac OS X 10_15_7) AppleWebKit/605.1.15 (KHTML, like Gecko) Version/18.0.1 Safari/605.1.15" version="24.8.4">
  <diagram name="Page-1" id="97916047-d0de-89f5-080d-49f4d83e522f">
    <mxGraphModel dx="2947.5" dy="647" grid="1" gridSize="10" guides="1" tooltips="1" connect="1" arrows="1" fold="1" page="1" pageScale="1.5" pageWidth="1169" pageHeight="827" background="none" math="0" shadow="0">
      <root>
        <mxCell id="0" />
        <mxCell id="1" parent="0" />
        <mxCell id="wYoVtWXYN8VsOcOLvKbg-88" value="" style="rounded=0;whiteSpace=wrap;html=1;" parent="1" vertex="1">
          <mxGeometry x="590" y="470" width="240" height="590" as="geometry" />
        </mxCell>
        <mxCell id="wYoVtWXYN8VsOcOLvKbg-83" value="" style="rounded=0;whiteSpace=wrap;html=1;" parent="1" vertex="1">
          <mxGeometry x="876.5" y="470" width="440" height="589.5" as="geometry" />
        </mxCell>
        <mxCell id="wYoVtWXYN8VsOcOLvKbg-70" value="" style="rounded=0;whiteSpace=wrap;html=1;" parent="1" vertex="1">
          <mxGeometry x="-10" y="470" width="550" height="590" as="geometry" />
        </mxCell>
        <mxCell id="2" value="START" style="rounded=1;fillColor=#10739E;strokeColor=none;shadow=1;gradientColor=none;fontStyle=1;fontColor=#FFFFFF;fontSize=14;" parent="1" vertex="1">
          <mxGeometry x="50" y="360" width="200" height="60" as="geometry" />
        </mxCell>
        <mxCell id="3" value="Check requirements, Access the data" style="rounded=1;fillColor=#10739E;strokeColor=none;shadow=1;gradientColor=none;fontStyle=1;fontColor=#FFFFFF;fontSize=14;" parent="1" vertex="1">
          <mxGeometry x="460" y="360" width="308" height="60" as="geometry" />
        </mxCell>
        <mxCell id="4" value="Request forÂ &#xa;Data Refreshment" style="rounded=1;fillColor=#006600;strokeColor=none;shadow=1;gradientColor=none;fontStyle=1;fontColor=#FFFFFF;fontSize=14;" parent="1" vertex="1">
          <mxGeometry x="30" y="550" width="200" height="60" as="geometry" />
        </mxCell>
        <mxCell id="5" value="Request for Data Scraping" style="rounded=1;fillColor=#006600;strokeColor=none;shadow=1;gradientColor=none;fontStyle=1;fontColor=#FFFFFF;fontSize=14;" parent="1" vertex="1">
          <mxGeometry x="270" y="550" width="200" height="60" as="geometry" />
        </mxCell>
        <mxCell id="6" value="Request for App/Apps Analysis" style="rounded=1;fillColor=#006600;strokeColor=none;shadow=1;gradientColor=none;fontStyle=1;fontColor=#FFFFFF;fontSize=14;" parent="1" vertex="1">
          <mxGeometry x="916.5" y="529.5" width="260" height="60" as="geometry" />
        </mxCell>
        <mxCell id="8" value="Google Play Scraper" style="rounded=1;fillColor=#10739E;strokeColor=none;shadow=1;gradientColor=none;fontStyle=1;fontColor=#FFFFFF;fontSize=14;" parent="1" vertex="1">
          <mxGeometry x="165" y="694" width="200" height="60" as="geometry" />
        </mxCell>
        <mxCell id="9" value="Data Gathering" style="rounded=1;fillColor=#10739E;strokeColor=none;shadow=1;gradientColor=none;fontStyle=1;fontColor=#FFFFFF;fontSize=14;" parent="1" vertex="1">
          <mxGeometry x="100" y="785.5" width="200" height="60" as="geometry" />
        </mxCell>
        <mxCell id="13" value="Get Data" style="rounded=1;fillColor=#10739E;strokeColor=none;shadow=1;gradientColor=none;fontStyle=1;fontColor=#FFFFFF;fontSize=14;" parent="1" vertex="1">
          <mxGeometry x="936.5" y="634" width="180" height="60" as="geometry" />
        </mxCell>
        <mxCell id="14" value="NLP Analysis" style="rounded=1;fillColor=#6666FF;strokeColor=none;shadow=1;gradientColor=none;fontStyle=1;fontColor=#FFFFFF;fontSize=14;" parent="1" vertex="1">
          <mxGeometry x="946.5" y="729.5" width="200" height="60" as="geometry" />
        </mxCell>
        <mxCell id="15" value="Data Classification" style="rounded=1;fillColor=#6666FF;strokeColor=none;shadow=1;gradientColor=none;fontStyle=1;fontColor=#FFFFFF;fontSize=14;" parent="1" vertex="1">
          <mxGeometry x="946.5" y="819.5" width="200" height="60" as="geometry" />
        </mxCell>
        <mxCell id="16" value="Visualization" style="rounded=1;fillColor=#6666FF;strokeColor=none;shadow=1;gradientColor=none;fontStyle=1;fontColor=#FFFFFF;fontSize=14;" parent="1" vertex="1">
          <mxGeometry x="946.5" y="909.5" width="200" height="60" as="geometry" />
        </mxCell>
        <mxCell id="29" value="" style="edgeStyle=elbowEdgeStyle;elbow=vertical;strokeWidth=4;endArrow=block;endFill=1;fontStyle=1;strokeColor=#23445D;" parent="1" source="2" target="3" edge="1">
          <mxGeometry x="22" y="165.5" width="100" height="100" as="geometry">
            <mxPoint x="22" y="265.5" as="sourcePoint" />
            <mxPoint x="122" y="165.5" as="targetPoint" />
          </mxGeometry>
        </mxCell>
        <mxCell id="30" value="" style="edgeStyle=elbowEdgeStyle;elbow=vertical;strokeWidth=4;endArrow=block;endFill=1;fontStyle=1;strokeColor=#23445D;exitX=0.5;exitY=1;exitDx=0;exitDy=0;" parent="1" source="3" target="5" edge="1">
          <mxGeometry x="22" y="165.5" width="100" height="100" as="geometry">
            <mxPoint x="22" y="265.5" as="sourcePoint" />
            <mxPoint x="122" y="165.5" as="targetPoint" />
            <Array as="points">
              <mxPoint x="500" y="450" />
              <mxPoint x="610" y="510" />
            </Array>
          </mxGeometry>
        </mxCell>
        <mxCell id="32" value="" style="edgeStyle=elbowEdgeStyle;elbow=vertical;strokeWidth=4;endArrow=block;endFill=1;fontStyle=1;strokeColor=#23445D;" parent="1" source="3" target="6" edge="1">
          <mxGeometry x="22" y="165.5" width="100" height="100" as="geometry">
            <mxPoint x="22" y="265.5" as="sourcePoint" />
            <mxPoint x="122" y="165.5" as="targetPoint" />
            <Array as="points">
              <mxPoint x="800" y="450" />
              <mxPoint x="910" y="420" />
            </Array>
          </mxGeometry>
        </mxCell>
        <mxCell id="39" value="" style="edgeStyle=elbowEdgeStyle;elbow=vertical;strokeWidth=4;endArrow=block;endFill=1;fontStyle=1;strokeColor=#23445D;" parent="1" source="9" edge="1">
          <mxGeometry x="62" y="175.5" width="100" height="100" as="geometry">
            <mxPoint x="40" y="380" as="sourcePoint" />
            <mxPoint x="220" y="905" as="targetPoint" />
            <Array as="points">
              <mxPoint x="200" y="880" />
            </Array>
          </mxGeometry>
        </mxCell>
        <mxCell id="40" value="" style="edgeStyle=elbowEdgeStyle;elbow=vertical;strokeWidth=4;endArrow=classic;startArrow=classic;endFill=1;fontStyle=1;strokeColor=#23445D;entryX=0.822;entryY=1.03;entryDx=0;entryDy=0;exitX=0.5;exitY=1;exitDx=0;exitDy=0;entryPerimeter=0;" parent="1" edge="1">
          <mxGeometry x="62" y="185.5" width="100" height="100" as="geometry">
            <mxPoint x="190" y="965.4999999999998" as="sourcePoint" />
            <mxPoint x="705.1999999999996" y="794.9999999999999" as="targetPoint" />
            <Array as="points">
              <mxPoint x="430.8" y="1010" />
            </Array>
          </mxGeometry>
        </mxCell>
        <mxCell id="42" value="" style="edgeStyle=elbowEdgeStyle;elbow=vertical;strokeWidth=4;endArrow=block;endFill=1;fontStyle=1;strokeColor=#23445D;" parent="1" source="13" target="14" edge="1">
          <mxGeometry x="62" y="165.5" width="100" height="100" as="geometry">
            <mxPoint x="456.5" y="289.5" as="sourcePoint" />
            <mxPoint x="556.5" y="189.5" as="targetPoint" />
          </mxGeometry>
        </mxCell>
        <mxCell id="43" value="" style="edgeStyle=elbowEdgeStyle;elbow=vertical;strokeWidth=4;endArrow=block;endFill=1;fontStyle=1;strokeColor=#23445D;" parent="1" source="14" target="15" edge="1">
          <mxGeometry x="62" y="175.5" width="100" height="100" as="geometry">
            <mxPoint x="456.5" y="299.5" as="sourcePoint" />
            <mxPoint x="556.5" y="199.5" as="targetPoint" />
          </mxGeometry>
        </mxCell>
        <mxCell id="44" value="" style="edgeStyle=elbowEdgeStyle;elbow=vertical;strokeWidth=4;endArrow=block;endFill=1;fontStyle=1;strokeColor=#23445D;" parent="1" source="15" target="16" edge="1">
          <mxGeometry x="62" y="185.5" width="100" height="100" as="geometry">
            <mxPoint x="456.5" y="309.5" as="sourcePoint" />
            <mxPoint x="556.5" y="209.5" as="targetPoint" />
          </mxGeometry>
        </mxCell>
        <mxCell id="54" value="" style="edgeStyle=elbowEdgeStyle;elbow=vertical;strokeWidth=4;endArrow=block;endFill=1;fontStyle=1;strokeColor=#23445D;exitX=0.5;exitY=1;exitDx=0;exitDy=0;" parent="1" source="6" target="13" edge="1">
          <mxGeometry x="22" y="165.5" width="100" height="100" as="geometry">
            <mxPoint x="68.5" y="279.5" as="sourcePoint" />
            <mxPoint x="168.5" y="179.5" as="targetPoint" />
            <Array as="points">
              <mxPoint x="1018.5" y="604" />
            </Array>
          </mxGeometry>
        </mxCell>
        <mxCell id="wYoVtWXYN8VsOcOLvKbg-65" value="" style="edgeStyle=elbowEdgeStyle;elbow=vertical;strokeWidth=4;endArrow=block;endFill=1;fontStyle=1;strokeColor=#23445D;exitX=1;exitY=0.5;exitDx=0;exitDy=0;" parent="1" source="wYoVtWXYN8VsOcOLvKbg-62" target="wYoVtWXYN8VsOcOLvKbg-88" edge="1">
          <mxGeometry x="62" y="185.5" width="100" height="100" as="geometry">
            <mxPoint x="439.99999999999955" y="930" as="sourcePoint" />
            <mxPoint x="730" y="710" as="targetPoint" />
            <Array as="points" />
          </mxGeometry>
        </mxCell>
        <mxCell id="wYoVtWXYN8VsOcOLvKbg-68" value="" style="edgeStyle=elbowEdgeStyle;elbow=vertical;strokeWidth=4;endArrow=block;endFill=1;fontStyle=1;strokeColor=#23445D;entryX=0.455;entryY=0.017;entryDx=0;entryDy=0;entryPerimeter=0;exitX=0.5;exitY=1;exitDx=0;exitDy=0;" parent="1" source="3" target="4" edge="1">
          <mxGeometry x="22" y="165.5" width="100" height="100" as="geometry">
            <mxPoint x="458" y="433" as="sourcePoint" />
            <mxPoint x="290" y="470" as="targetPoint" />
            <Array as="points">
              <mxPoint x="340" y="450" />
              <mxPoint x="520" y="520" />
              <mxPoint x="300" y="530" />
            </Array>
          </mxGeometry>
        </mxCell>
        <mxCell id="wYoVtWXYN8VsOcOLvKbg-71" value="&lt;font style=&quot;font-size: 18px;&quot;&gt;Data Module&lt;/font&gt;" style="text;html=1;align=center;verticalAlign=middle;whiteSpace=wrap;rounded=0;" parent="1" vertex="1">
          <mxGeometry x="380" y="475" width="180" height="30" as="geometry" />
        </mxCell>
        <mxCell id="wYoVtWXYN8VsOcOLvKbg-76" value="" style="edgeStyle=elbowEdgeStyle;elbow=vertical;strokeWidth=4;endArrow=block;endFill=1;fontStyle=1;strokeColor=#23445D;" parent="1" edge="1">
          <mxGeometry x="62" y="175.5" width="100" height="100" as="geometry">
            <mxPoint x="250" y="749" as="sourcePoint" />
            <mxPoint x="250.5" y="789.5" as="targetPoint" />
            <Array as="points">
              <mxPoint x="230.5" y="759.5" />
            </Array>
          </mxGeometry>
        </mxCell>
        <mxCell id="wYoVtWXYN8VsOcOLvKbg-77" value="" style="edgeStyle=elbowEdgeStyle;elbow=vertical;strokeWidth=4;endArrow=block;endFill=1;fontStyle=1;strokeColor=#23445D;entryX=0.5;entryY=0;entryDx=0;entryDy=0;" parent="1" source="4" target="8" edge="1">
          <mxGeometry x="62" y="175.5" width="100" height="100" as="geometry">
            <mxPoint x="379.5" y="620" as="sourcePoint" />
            <mxPoint x="379.5" y="680" as="targetPoint" />
          </mxGeometry>
        </mxCell>
        <mxCell id="wYoVtWXYN8VsOcOLvKbg-78" value="" style="edgeStyle=elbowEdgeStyle;elbow=vertical;strokeWidth=4;endArrow=block;endFill=1;fontStyle=1;strokeColor=#23445D;exitX=0.5;exitY=1;exitDx=0;exitDy=0;" parent="1" source="5" target="8" edge="1">
          <mxGeometry x="62" y="175.5" width="100" height="100" as="geometry">
            <mxPoint x="369.5" y="715.5" as="sourcePoint" />
            <mxPoint x="370" y="680" as="targetPoint" />
            <Array as="points" />
          </mxGeometry>
        </mxCell>
        <mxCell id="10" value="Data Storage" style="rounded=1;fillColor=#10739E;strokeColor=none;shadow=1;gradientColor=none;fontStyle=1;fontColor=#FFFFFF;fontSize=14;" parent="1" vertex="1">
          <mxGeometry x="100" y="905.5" width="200" height="60" as="geometry" />
        </mxCell>
        <mxCell id="wYoVtWXYN8VsOcOLvKbg-84" value="&lt;font size=&quot;4&quot;&gt;Classification&amp;amp;Visualisation Module&lt;/font&gt;" style="text;html=1;align=center;verticalAlign=middle;whiteSpace=wrap;rounded=0;" parent="1" vertex="1">
          <mxGeometry x="1090" y="475" width="200" height="54.5" as="geometry" />
        </mxCell>
        <mxCell id="wYoVtWXYN8VsOcOLvKbg-89" value="&lt;font size=&quot;4&quot;&gt;Preprocessing Module&lt;/font&gt;" style="text;html=1;align=center;verticalAlign=middle;whiteSpace=wrap;rounded=0;" parent="1" vertex="1">
          <mxGeometry x="610" y="462.75" width="200" height="54.5" as="geometry" />
        </mxCell>
        <mxCell id="wYoVtWXYN8VsOcOLvKbg-62" value="Preprocessing the data" style="rounded=1;fillColor=#6666FF;strokeColor=none;shadow=1;gradientColor=none;fontStyle=1;fontColor=#FFFFFF;fontSize=14;" parent="1" vertex="1">
          <mxGeometry x="610" y="740" width="200" height="55" as="geometry" />
        </mxCell>
        <mxCell id="wYoVtWXYN8VsOcOLvKbg-107" style="edgeStyle=elbowEdgeStyle;elbow=vertical;strokeWidth=4;endArrow=block;endFill=1;fontStyle=1;strokeColor=#23445D;exitX=0.5;exitY=0;exitDx=0;exitDy=0;" parent="1" target="13" edge="1">
          <mxGeometry relative="1" as="geometry">
            <mxPoint x="700" y="740" as="sourcePoint" />
            <mxPoint x="866.5" y="670" as="targetPoint" />
            <Array as="points">
              <mxPoint x="810" y="670" />
            </Array>
          </mxGeometry>
        </mxCell>
        <mxCell id="zgTLJSHtycJTFeUl3KYn-54" value="Google PlayÂ &#xa;API" style="rounded=1;fillColor=#10739E;strokeColor=none;shadow=1;gradientColor=none;fontStyle=1;fontColor=#FFFFFF;fontSize=14;" parent="1" vertex="1">
          <mxGeometry x="15.5" y="705" width="109.5" height="49" as="geometry" />
        </mxCell>
        <mxCell id="zgTLJSHtycJTFeUl3KYn-56" value="" style="edgeStyle=elbowEdgeStyle;elbow=vertical;strokeWidth=4;endArrow=classic;startArrow=classic;endFill=1;fontStyle=1;strokeColor=#23445D;" parent="1" edge="1">
          <mxGeometry width="50" height="50" relative="1" as="geometry">
            <mxPoint x="165" y="730" as="sourcePoint" />
            <mxPoint x="125" y="729.5" as="targetPoint" />
            <Array as="points">
              <mxPoint x="225" y="729.5" />
            </Array>
          </mxGeometry>
        </mxCell>
        <mxCell id="zgTLJSHtycJTFeUl3KYn-60" style="edgeStyle=elbowEdgeStyle;elbow=vertical;strokeWidth=4;endArrow=classic;startArrow=classic;endFill=1;fontStyle=1;strokeColor=#23445D;entryX=1;entryY=0.5;entryDx=0;entryDy=0;exitX=1;exitY=0.5;exitDx=0;exitDy=0;" parent="1" source="8" target="10" edge="1">
          <mxGeometry relative="1" as="geometry">
            <mxPoint x="720" y="674" as="sourcePoint" />
            <mxPoint x="720" y="750" as="targetPoint" />
            <Array as="points">
              <mxPoint x="390" y="830" />
            </Array>
          </mxGeometry>
        </mxCell>
      </root>
    </mxGraphModel>
  </diagram>
</mxfile>
